<svg width="90" height="90" viewBox="0 0 90 90" fill="none" xmlns="http://www.w3.org/2000/svg">
<path opacity="0.4" d="M60.8999 13.6875H29.0999C19.8374 13.6875 12.3374 21.225 12.3374 30.45V65.7375C12.3374 74.9625 19.8749 82.5 29.0999 82.5H60.8624C70.1249 82.5 77.6249 74.9625 77.6249 65.7375V30.45C77.6624 21.1875 70.1249 13.6875 60.8999 13.6875Z" fill="#FFF7EB"/>
<path d="M53.8126 7.5H36.1876C32.2876 7.5 29.1001 10.65 29.1001 14.55V18.075C29.1001 21.975 32.2501 25.125 36.1501 25.125H53.8126C57.7126 25.125 60.8626 21.975 60.8626 18.075V14.55C60.9001 10.65 57.7126 7.5 53.8126 7.5Z" fill="#FFF7EB"/>
<path d="M40.5375 63.5625C39.825 63.5625 39.1125 63.3 38.55 62.7375L32.925 57.1125C31.8375 56.025 31.8375 54.225 32.925 53.1375C34.0125 52.05 35.8125 52.05 36.9 53.1375L40.5375 56.775L53.55 43.7625C54.6375 42.675 56.4375 42.675 57.525 43.7625C58.6125 44.85 58.6125 46.65 57.525 47.7375L42.525 62.7375C42 63.3 41.25 63.5625 40.5375 63.5625Z" fill="#FFF7EB"/>
</svg>
