<svg width="85" height="85" viewBox="0 0 85 85" fill="none" xmlns="http://www.w3.org/2000/svg">
<path d="M42.5 66.4062C41.0479 66.4062 39.8438 65.2021 39.8438 63.75V60.2083C39.8438 58.7562 41.0479 57.5521 42.5 57.5521C43.9521 57.5521 45.1563 58.7562 45.1563 60.2083V63.75C45.1563 65.2021 43.9521 66.4062 42.5 66.4062Z" fill="#FFF7EB"/>
<path d="M42.5 80.5729C41.0479 80.5729 39.8438 79.3688 39.8438 77.9167V74.375C39.8438 72.9229 41.0479 71.7188 42.5 71.7188C43.9521 71.7188 45.1563 72.9229 45.1563 74.375V77.9167C45.1563 79.3688 43.9521 80.5729 42.5 80.5729Z" fill="#FFF7EB"/>
<path d="M7.08342 80.573C6.87092 80.573 6.65844 80.5375 6.44594 80.5021C5.02928 80.1479 4.14385 78.6959 4.49802 77.2792L8.03968 63.1126C8.39385 61.6959 9.81048 60.8105 11.2626 61.1647C12.6792 61.5189 13.5647 62.9709 13.2105 64.3875L9.66882 78.5542C9.35007 79.7584 8.28759 80.573 7.08342 80.573Z" fill="#FFF7EB"/>
<path d="M77.9167 80.5729C76.7125 80.5729 75.65 79.7583 75.3313 78.5541L71.7896 64.3875C71.4355 62.9708 72.2855 61.5188 73.7376 61.1646C75.1542 60.8105 76.6063 61.6604 76.9604 63.1125L80.5021 77.2792C80.8563 78.6958 80.0063 80.1478 78.5542 80.502C78.3417 80.5374 78.1292 80.5729 77.9167 80.5729Z" fill="#FFF7EB"/>
<path opacity="0.4" d="M68.2125 33.7167C67.8229 29.5375 66.725 25.1105 58.6146 25.1105H26.3854C18.275 25.1105 17.1771 29.5729 16.7876 33.7167L15.3709 49.0874C15.1938 50.9999 15.8313 52.9124 17.1417 54.3645C18.4875 55.8165 20.4001 56.6666 22.3834 56.6666H27.1292C31.2021 56.6666 31.9813 54.3292 32.5125 52.7709L33.0084 51.2478C33.5751 49.5124 33.7167 49.0874 36.0188 49.0874H48.9459C51.2126 49.0874 51.2834 49.3353 51.9563 51.2478L52.4521 52.7709C52.9834 54.3292 53.7625 56.6666 57.8355 56.6666H62.5813C64.5646 56.6666 66.4771 55.8165 67.8229 54.3645C69.1333 52.9478 69.7708 50.9999 69.5938 49.0874L68.2125 33.7167Z" fill="#FFF7EB"/>
<path d="M65.2376 17.4958H62.723C62.6876 17.4958 62.6876 17.4958 62.6876 17.4958L61.7313 12.9271C60.8105 8.50007 58.9334 4.42706 51.3896 4.42706H44.4125H40.623H33.6459C26.1022 4.42706 24.2251 8.50007 23.3042 12.9271L22.348 17.4958C22.3126 17.4958 22.3126 17.4958 22.3126 17.4958H19.798C18.7355 17.4958 17.8855 18.3457 17.8855 19.4082C17.8855 20.4707 18.7355 21.3209 19.798 21.3209H21.6043L20.5417 26.3854C21.923 25.6063 23.8001 25.1105 26.4209 25.1105H58.6501C61.2709 25.1105 63.1834 25.6063 64.5292 26.3854L63.4667 21.3209H65.273C66.3355 21.3209 67.1855 20.4707 67.1855 19.4082C67.1501 18.3457 66.3001 17.4958 65.2376 17.4958Z" fill="#FFF7EB"/>
<path d="M34.9209 38.9938H27.3417C26.2792 38.9938 25.4292 38.1436 25.4292 37.0811C25.4292 36.0186 26.2792 35.1687 27.3417 35.1687H34.9209C35.9834 35.1687 36.8334 36.0186 36.8334 37.0811C36.798 38.1436 35.948 38.9938 34.9209 38.9938Z" fill="#FFF7EB"/>
<path d="M57.6584 38.9938H50.0792C49.0167 38.9938 48.1667 38.1436 48.1667 37.0811C48.1667 36.0186 49.0167 35.1687 50.0792 35.1687H57.6584C58.7209 35.1687 59.5709 36.0186 59.5709 37.0811C59.5709 38.1436 58.7209 38.9938 57.6584 38.9938Z" fill="#FFF7EB"/>
</svg>
