<svg width="90" height="90" viewBox="0 0 90 90" fill="none" xmlns="http://www.w3.org/2000/svg">
<path opacity="0.4" d="M67.5 70.7249H64.65C61.65 70.7249 58.8 71.8874 56.7 73.9874L50.2875 80.3249C47.3625 83.2124 42.6 83.2124 39.675 80.3249L33.2625 73.9874C31.1625 71.8874 28.275 70.7249 25.3125 70.7249H22.5C16.275 70.7249 11.25 65.7376 11.25 59.5876V18.6749C11.25 12.5249 16.275 7.53754 22.5 7.53754H67.5C73.725 7.53754 78.75 12.5249 78.75 18.6749V59.5876C78.75 65.7001 73.725 70.7249 67.5 70.7249Z" fill="#FFF7EB"/>
<path d="M62.1748 35.8874C61.4623 34.8749 60.2623 34.3125 58.8373 34.3125H51.5248C51.0373 34.3125 50.5873 34.1249 50.2873 33.7499C49.9873 33.3749 49.8373 32.8874 49.9123 32.3624L50.8123 26.5124C51.1873 24.7874 50.0248 22.7999 48.2998 22.2374C46.6873 21.6374 44.7748 22.4623 44.0248 23.5873L36.7498 34.3873V33.0374C36.7498 30.4124 35.6248 29.3249 32.8498 29.3249H31.0123C28.2373 29.3249 27.1123 30.4124 27.1123 33.0374V50.9625C27.1123 53.5875 28.2373 54.675 31.0123 54.675H32.8498C35.4748 54.675 36.5998 53.6624 36.7123 51.2624L42.2248 55.4999C42.9748 56.2499 44.6623 56.6624 45.8623 56.6624H52.7998C55.1998 56.6624 57.5998 54.8623 58.1248 52.6498L62.5123 39.2998C62.9998 38.0998 62.8873 36.8624 62.1748 35.8874Z" fill="#FFF7EB"/>
</svg>
