<svg width="90" height="90" viewBox="0 0 90 90" fill="none" xmlns="http://www.w3.org/2000/svg">
<path opacity="0.4" d="M71.25 33.75C71.25 39.1875 69.6375 44.1751 66.8625 48.3376C62.8125 54.3376 56.4 58.575 48.9375 59.6625C47.6625 59.8875 46.35 60 45 60C43.65 60 42.3375 59.8875 41.0625 59.6625C33.6 58.575 27.1875 54.3376 23.1375 48.3376C20.3625 44.1751 18.75 39.1875 18.75 33.75C18.75 19.2375 30.4875 7.5 45 7.5C59.5125 7.5 71.25 19.2375 71.25 33.75Z" fill="#FFF7EB"/>
<path d="M79.6875 69.2625L73.5001 70.725C72.1125 71.0625 71.0251 72.1125 70.7251 73.5L69.4126 79.0126C68.7001 82.0126 64.8751 82.9126 62.8876 80.5501L45.0001 60L27.1126 80.5875C25.1251 82.95 21.3 82.05 20.5876 79.05L19.2751 73.5375C18.9376 72.15 17.8501 71.0625 16.5001 70.7625L10.3126 69.3001C7.46255 68.6251 6.45005 65.0625 8.51255 63L23.1376 48.375C27.1876 54.375 33.6001 58.6126 41.0626 59.7001C42.3376 59.9251 43.6501 60.0376 45.0001 60.0376C46.3501 60.0376 47.6626 59.9251 48.9376 59.7001C56.4001 58.6126 62.8126 54.375 66.8626 48.375L81.4875 63C83.55 65.025 82.5376 68.5875 79.6875 69.2625Z" fill="#FFF7EB"/>
<path d="M47.1749 22.425L49.3874 26.85C49.6874 27.45 50.4749 28.05 51.1874 28.1625L55.1999 28.8375C57.7499 29.25 58.3499 31.125 56.5124 32.9625L53.3999 36.0749C52.8749 36.5999 52.5749 37.6125 52.7624 38.3625L53.6624 42.225C54.3749 45.2625 52.7624 46.4624 50.0624 44.8499L46.3124 42.6374C45.6374 42.2249 44.5124 42.2249 43.8374 42.6374L40.0874 44.8499C37.3874 46.4249 35.7749 45.2625 36.4874 42.225L37.3874 38.3625C37.5374 37.65 37.2749 36.5999 36.7499 36.0749L33.6374 32.9625C31.7999 31.125 32.3999 29.2875 34.9499 28.8375L38.9624 28.1625C39.6374 28.05 40.4249 27.45 40.7249 26.85L42.9374 22.425C44.0249 20.025 45.9749 20.025 47.1749 22.425Z" fill="#FFF7EB"/>
</svg>
