<svg width="80" height="80" viewBox="0 0 80 80" fill="none" xmlns="http://www.w3.org/2000/svg">
<rect width="80" height="80" rx="6" fill="white"/>
<path d="M17.1431 54.2857V26.2938H25.0124V54.2857H17.1431ZM36.0655 54.2857V37.7687C36.0655 36.146 35.5249 34.8903 34.4436 34.0017C33.4024 33.0744 32.1008 32.6108 30.539 32.6108C29.4977 32.6108 28.5566 32.8233 27.7156 33.2483C26.8746 33.6346 26.2138 34.2142 25.7333 34.9869C25.2527 35.7596 25.0124 36.6869 25.0124 37.7687L21.9488 36.3199C21.9488 34.1562 22.4293 32.2824 23.3905 30.6983C24.3917 29.1142 25.7333 27.8972 27.4153 27.0472C29.0973 26.1585 30.9995 25.7142 33.122 25.7142C35.1244 25.7142 36.9466 26.1585 38.5885 27.0472C40.2305 27.8972 41.532 29.1142 42.4932 30.6983C43.4543 32.2437 43.9349 34.1176 43.9349 36.3199V54.2857H36.0655ZM54.988 54.2857V37.7687C54.988 36.146 54.4474 34.8903 53.3661 34.0017C52.3248 33.0744 51.0233 32.6108 49.4614 32.6108C48.4603 32.6108 47.5191 32.8233 46.6381 33.2483C45.7971 33.6346 45.1363 34.2142 44.6557 34.9869C44.1752 35.7596 43.9349 36.6869 43.9349 37.7687L39.4295 36.7255C39.5897 34.4846 40.2105 32.5528 41.2917 30.9301C42.373 29.2688 43.7947 27.9938 45.5568 27.1051C47.3189 26.1779 49.2812 25.7142 51.4438 25.7142C53.6064 25.7142 55.5487 26.1585 57.2707 27.0472C58.9928 27.8972 60.3544 29.1335 61.3556 30.7563C62.3568 32.379 62.8574 34.3108 62.8574 36.5517V54.2857H54.988Z" fill="#0D3C2D"/>
</svg>
