<svg width="80" height="80" viewBox="0 0 80 80" fill="none" xmlns="http://www.w3.org/2000/svg">
<rect width="80" height="80" rx="12" fill="white"/>
<path d="M53.1943 45.7764C52.9029 45.4393 52.5423 45.1689 52.1371 44.9836C51.7319 44.7983 51.2915 44.7024 50.8459 44.7024C50.4003 44.7024 49.9599 44.7983 49.5547 44.9836C49.1495 45.1689 48.7889 45.4393 48.4975 45.7764C47.4002 46.8603 46.303 47.9575 45.2191 49.0682C45.1172 49.2068 44.9657 49.3009 44.7963 49.3308C44.6268 49.3607 44.4524 49.3242 44.3092 49.2288C43.6 48.8407 42.8372 48.533 42.1548 48.1048C39.0232 46.0751 36.2473 43.5434 33.9388 40.6113C32.7334 39.1903 31.7376 37.6041 30.9815 35.9011C30.8993 35.7599 30.8716 35.5935 30.9036 35.4332C30.9357 35.273 31.0253 35.13 31.1555 35.0313C32.2527 33.9608 33.3232 32.877 34.4071 31.7797C34.7608 31.4859 35.0455 31.1177 35.2409 30.7014C35.4363 30.2851 35.5376 29.831 35.5376 29.3711C35.5376 28.9112 35.4363 28.457 35.2409 28.0407C35.0455 27.6245 34.7608 27.2563 34.4071 26.9625L31.8245 24.3799C30.9414 23.4967 30.0582 22.6002 29.1483 21.7037C28.8544 21.3705 28.4931 21.1037 28.0882 20.9209C27.6833 20.7381 27.2441 20.6436 26.7999 20.6436C26.3556 20.6436 25.9165 20.7381 25.5116 20.9209C25.1067 21.1037 24.7453 21.3705 24.4515 21.7037C23.3408 22.7875 22.2837 23.9115 21.1463 24.982C20.1449 25.9265 19.5459 27.2204 19.4737 28.595C19.3784 30.8493 19.7804 33.097 20.6512 35.1785C22.3202 39.5056 24.724 43.5119 27.7566 47.0209C31.7481 51.814 36.716 55.7007 42.3288 58.4217C44.8229 59.7277 47.5523 60.5238 50.3575 60.7634C51.2972 60.869 52.2485 60.7493 53.1327 60.4142C54.0169 60.0791 54.8086 59.5383 55.4423 58.8365C56.379 57.7794 57.4361 56.8159 58.4397 55.8123C58.7868 55.5171 59.0655 55.15 59.2567 54.7364C59.4478 54.3229 59.5468 53.8727 59.5468 53.4171C59.5468 52.9614 59.4478 52.5113 59.2567 52.0977C59.0655 51.6842 58.7868 51.3171 58.4397 51.0219C56.7091 49.2734 54.9606 47.5249 53.1943 45.7764Z" fill="#333333"/>
<path d="M60.1391 38.1357C56.655 29.9971 50.1508 23.5265 41.9942 20.0845C41.6657 19.9619 41.3022 19.9731 40.9819 20.1157C40.6616 20.2583 40.41 20.521 40.2814 20.8472C40.2113 21.0104 40.1744 21.186 40.1729 21.3636C40.1714 21.5413 40.2052 21.7174 40.2725 21.8818C40.3397 22.0462 40.439 22.1956 40.5646 22.3212C40.6902 22.4469 40.8396 22.5462 41.004 22.6135C48.5227 25.79 54.5179 31.7564 57.7305 39.2597C57.8741 39.5779 58.1364 39.8274 58.4614 39.9549C58.7864 40.0824 59.1483 40.0778 59.47 39.9422C59.6348 39.8701 59.7832 39.7655 59.9066 39.6348C60.0301 39.504 60.1259 39.3497 60.1883 39.1811C60.2508 39.0125 60.2786 38.833 60.2701 38.6534C60.2617 38.4738 60.2171 38.2977 60.1391 38.1357Z" fill="#333333"/>
<path d="M40.3079 29.8794C44.8653 31.799 48.5011 35.4108 50.4508 39.9554C50.5544 40.1796 50.7179 40.3708 50.9234 40.5078C51.1289 40.6448 51.3682 40.7222 51.615 40.7316C51.7957 40.7302 51.9738 40.6891 52.1368 40.6111C52.4446 40.4604 52.6827 40.1973 52.8022 39.8761C52.9217 39.555 52.9135 39.2002 52.7792 38.8849C50.5691 33.7252 46.4438 29.624 41.2713 27.444C40.9528 27.331 40.6033 27.3426 40.293 27.4767C39.9827 27.6107 39.7347 27.8572 39.5987 28.1666C39.4729 28.4884 39.4764 28.8464 39.6086 29.1657C39.7408 29.4849 39.9914 29.7407 40.3079 29.8794Z" fill="#333333"/>
</svg>
